<svg xmlns="http://www.w3.org/2000/svg" xmlns:xlink="http://www.w3.org/1999/xlink" fill="none" version="1.1" width="20" height="20" viewBox="0 0 20 20"><g style="mix-blend-mode:passthrough"><g style="mix-blend-mode:passthrough"><path d="M0,20L17.1429,20C18.7208,20,20,18.7208,20,17.1429L20,0L2.85714,0C1.27919,0,0,1.27919,0,2.85714L0,20Z" fill="#1D62DB" fill-opacity="1"/></g><g style="mix-blend-mode:passthrough"><path d="M6.40146,12.9427C6.40153,12.94276,6.401400000000001,12.94264,6.40146,12.9427C6.40146,12.9427,3.75,10.291229999999999,3.75,10.291229999999999C3.75,10.291229999999999,5.54349,8.54919,5.54349,8.54919C5.54349,8.54919,8.1721,11.177800000000001,8.1721,11.177800000000001C8.1721,11.177800000000001,14.3687,5,14.3687,5C14.3687,5,16.1244,6.7557,16.1244,6.7557C16.1244,6.7557,9.927800000000001,12.9335,9.927800000000001,12.9335C9.927800000000001,12.9335,9.93718,12.94289,9.93718,12.94289C9.93718,12.94289,9.91109,12.96823,9.91109,12.96823C9.857,13.02077,9.80114,13.07037,9.74371,13.11704C9.74371,13.11704,9.041229999999999,13.81738,9.041229999999999,13.81738C8.552859999999999,14.30427,7.76244,14.30367,7.27481,13.81604C7.27481,13.81604,6.40146,12.9427,6.40146,12.9427Z" fill="#FFFFFF" fill-opacity="0.8999999761581421"/></g></g></svg>