<svg xmlns="http://www.w3.org/2000/svg" xmlns:xlink="http://www.w3.org/1999/xlink" fill="none" version="1.1" width="14"
  height="14" viewBox="0 0 14 14">
  <defs>
    <clipPath id="master_svg0_1647_67711">
      <rect x="0" y="0" width="14" height="14" rx="0" />
    </clipPath>
  </defs>
  <g clip-path="url(#master_svg0_1647_67711)">
    <g>
      <path
        d="M6.747260078125,7.63078265625C6.917850078125,7.80259265625,7.195740078125,7.80259265625,7.366330078125,7.63078265625L11.582080078125,3.41503165625C11.752900078125,3.24420365625,11.752900078125,2.96723565625,11.582080078125,2.79640665625C11.411250078125,2.62557845625,11.134280078125,2.62557825625,10.963450078125,2.79640665625L7.057010078125,6.70284265625L3.035076078125,2.68134365625C2.864248078125,2.51051535625,2.587280078125,2.51051555625,2.416451078125,2.68134365625C2.245622978125,2.85217265625,2.245622978125,3.12914065625,2.416451078125,3.29996865625L6.747260078125,7.63078265625ZM10.963450078125,6.29684265625L7.057010078125,10.20328265625L3.035514078125,6.18178265625C2.864685078125,6.01095265625,2.587717078125,6.01095265625,2.416889078125,6.18178265625C2.246060278125,6.35261265625,2.246060278125,6.62958265625,2.416889078125,6.80040265625L6.747700078125,11.13122265625C6.918290078125,11.30303265625,7.196170078125,11.30303265625,7.366760078125,11.13122265625L11.582510078125,6.91547265625C11.753340078125,6.74452265625,11.753240078125,6.46745265625,11.582300078125,6.296622656249999C11.411350078125,6.12579265625,11.134280078125,6.1258926562500005,10.963450078125,6.29684265625Z"
        fill="#1D62DB" fill-opacity="1" />
    </g>
  </g>
</svg>