<svg xmlns="http://www.w3.org/2000/svg" xmlns:xlink="http://www.w3.org/1999/xlink" version="1.1" width="16" height="16"
  viewBox="0 0 16 16">
  <g style="mix-blend-mode:passthrough">
    <g style="mix-blend-mode:passthrough">
      <path
        d="M14.853584375,8.14645771484375L8.359244375,1.65211871484375C8.163984375,1.4568567148437501,7.836084375,1.4568567148437501,7.640824375,1.65211871484375L1.146484375,8.14645771484375L1.8535913750000002,8.85356771484375L3.0000343750000003,7.70711771484375L3.0000343750000003,13.51400771484375C3.0000343750000003,14.06630771484375,3.440204375,14.50000771484375,3.992494375,14.50000771484375L12.007584375,14.50000771484375C12.559884375,14.50000771484375,13.000084375,14.06630771484375,13.000084375,13.51400771484375L13.000084375,7.70711771484375L14.146484375,8.85356771484375L14.853584375,8.14645771484375ZM4.000034375,6.70711771484375L8.000034375,2.7071177148437497L12.000084375,6.70711771484375L12.000084375,13.50000771484375L4.000034375,13.50000771484375L4.000034375,6.70711771484375ZM6.000034375,12.00000771484375L6.000034375,11.00001771484375L10.000034375,11.00001771484375L10.000034375,12.00000771484375L6.000034375,12.00000771484375Z"
        fill-rule="evenodd" fill-opacity="0.8980392217636108" />
    </g>
  </g>
</svg>