<svg xmlns="http://www.w3.org/2000/svg" xmlns:xlink="http://www.w3.org/1999/xlink" version="1.1" width="16" height="16"
  viewBox="0 0 16 16">
  <g style="opacity:0.9000000357627869;">
    <g style="mix-blend-mode:passthrough">
      <path
        d="M2,2.999999C2,2.447715,2.447715,2,3,2L13,2C13.5523,2,14,2.447715,14,3L14,13C14,13.5523,13.5523,14,13,14L2.999999,14C2.447715,14,2,13.5523,2,13L2,2.999999ZM13,13L13,3L3,3L2.999999,13L13,13ZM11.5,5L4.5,5L4.5,6L11.5,6L11.5,5ZM4.5,7.5L9,7.5L9,8.5L4.5,8.5L4.5,7.5Z"
        fill-rule="evenodd" fill-opacity="0.8980392217636108" />
    </g>
  </g>
</svg>