<svg xmlns="http://www.w3.org/2000/svg" xmlns:xlink="http://www.w3.org/1999/xlink" version="1.1" width="16" height="16"
  viewBox="0 0 16 16">
  <g style="mix-blend-mode:passthrough">
    <g style="mix-blend-mode:passthrough">
      <path
        d="M8.00073,7.5085334375L14.0741,4.978033437500001C14.4845,4.8070234375,14.4845,4.2005334375,14.0741,4.0295234375L8.00073,1.4990234375L1.927382,4.0295234375C1.5169524,4.2005334375,1.5169533,4.8070234375,1.927382,4.978033437500001L8.00073,7.5085334375ZM8.00073,6.4089334375L3.4282500000000002,4.5037734375L8.00073,2.5986234374999997L12.5732,4.5037734375L8.00073,6.4089334375ZM1.5,7.0267634375L1.5,8.2539134375L8.00099,11.1120634375L14.5,8.2547834375L14.5,7.0276334375L8.00099,9.8849134375L1.5,7.0267634375ZM1.5,10.4195534375L1.5,11.6467234375L8.00108,14.5049234375L14.5,11.6476234375L14.5,10.4205034375L8.00108,13.2777234375L1.5,10.4195534375Z"
        fill-rule="evenodd" fill-opacity="0.8999999761581421" />
    </g>
  </g>
</svg>