<svg xmlns="http://www.w3.org/2000/svg" xmlns:xlink="http://www.w3.org/1999/xlink" fill="none" version="1.1" width="32"
  height="32" viewBox="0 0 32 32">
  <defs>
    <clipPath id="master_svg0_1011_114444">
      <rect x="0" y="0" width="32" height="32" rx="3" />
    </clipPath>
  </defs>
  <g style="mix-blend-mode:passthrough" clip-path="url(#master_svg0_1011_114444)">
    <g style="mix-blend-mode:passthrough">
      <g style="mix-blend-mode:passthrough">
        <path
          d="M7.873046875,10.9990234375C7.873046875,10.3086674375,8.432690875,9.7490234375,9.123046875,9.7490234375C9.123046875,9.7490234375,22.873046875,9.7490234375,22.873046875,9.7490234375C23.563446875,9.7490234375,24.123046875,10.3086674375,24.123046875,10.9990234375C24.123046875,10.9990234375,24.123046875,20.9990234375,24.123046875,20.9990234375C24.123046875,21.6894234375,23.563446875,22.2490234375,22.873046875,22.2490234375C22.873046875,22.2490234375,9.123046875,22.2490234375,9.123046875,22.2490234375C8.432690875,22.2490234375,7.873046875,21.6894234375,7.873046875,20.9990234375C7.873046875,20.9990234375,7.873046875,10.9990234375,7.873046875,10.9990234375ZM22.371346875,10.9990234375C22.371346875,10.9990234375,9.624776875,10.9990234375,9.624776875,10.9990234375C9.624776875,10.9990234375,15.998046875,15.247863437500001,15.998046875,15.247863437500001C15.998046875,15.247863437500001,22.371346875,10.9990234375,22.371346875,10.9990234375ZM9.123046875,12.166843437499999C9.123046875,12.166843437499999,9.123046875,20.9990234375,9.123046875,20.9990234375C9.123046875,20.9990234375,22.873046875,20.9990234375,22.873046875,20.9990234375C22.873046875,20.9990234375,22.873046875,12.166843437499999,22.873046875,12.166843437499999C22.873046875,12.166843437499999,15.998046875,16.7501834375,15.998046875,16.7501834375C15.998046875,16.7501834375,9.123046875,12.166843437499999,9.123046875,12.166843437499999Z"
          fill="#000000" fill-opacity="0.8999999761581421" />
      </g>
    </g>
  </g>
</svg>