<svg xmlns="http://www.w3.org/2000/svg" xmlns:xlink="http://www.w3.org/1999/xlink" version="1.1" width="16" height="16"
  viewBox="0 0 16 16">
  <g style="mix-blend-mode:passthrough">
    <g style="mix-blend-mode:passthrough">
      <path
        d="M14.0619,4.625L7.99968,1.25L1.9375,4.625L1.9375,11.375L7.99968,14.75L14.0619,11.375L14.0619,4.625ZM2.9375,10.7872L2.9375,5.2128L7.99968,2.39453L13.0619,5.2128L13.0619,10.7872L7.99968,13.6055L2.9375,10.7872ZM7.99968,11C9.65653,11,10.99968,9.65685,10.99968,8C10.99968,6.34315,9.65653,5,7.99968,5C6.34282,5,4.99968,6.34315,4.99968,8C4.99968,9.65685,6.34282,11,7.99968,11ZM7.99968,6C9.10425,6,9.99968,6.89543,9.99968,8C9.99968,9.104569999999999,9.10425,10,7.99968,10C6.89511,10,5.99968,9.104569999999999,5.99968,8C5.99968,6.89543,6.89511,6,7.99968,6Z"
        fill-rule="evenodd" fill-opacity="1" />
    </g>
  </g>
</svg>