<svg xmlns="http://www.w3.org/2000/svg" xmlns:xlink="http://www.w3.org/1999/xlink" fill="none" version="1.1" width="20" height="20" viewBox="0 0 20 20"><g style="mix-blend-mode:passthrough"><g style="mix-blend-mode:passthrough"><path d="M18.75,10C18.75,5.16751,14.8325,1.25000147865,10,1.2500000000013722C5.16751,1.24999732268,1.25000147865,5.16751,1.2500000000013722,10C1.24999732268,14.8325,5.16751,18.75,10,18.75C14.8325,18.75,18.75,14.8325,18.75,10ZM10.625,5.00038C10.625,5.00038,10.625,11.875,10.625,11.875C10.625,11.875,9.375,11.875,9.375,11.875C9.375,11.875,9.375,5.00038,9.375,5.00038C9.375,5.00038,10.625,5.00038,10.625,5.00038ZM9.24286,13.75C9.24286,13.75,10.74286,13.75,10.74286,13.75C10.74286,13.75,10.74286,15.25,10.74286,15.25C10.74286,15.25,9.24286,15.25,9.24286,15.25C9.24286,15.25,9.24286,13.75,9.24286,13.75Z" fill="#1D62DB" fill-opacity="1"/></g></g></svg>