<svg xmlns="http://www.w3.org/2000/svg" xmlns:xlink="http://www.w3.org/1999/xlink" fill="none" version="1.1" width="18" height="18" viewBox="0 0 18 18"><g style="mix-blend-mode:passthrough"><path d="M18,9C18,4.02944,13.9706,0.00000152089,9,1.41152e-12C4.02944,-0.00000275382,0.00000152089,4.02944,1.41152e-12,9C-0.00000275382,13.9706,4.02944,18,9,18C13.9706,18,18,13.9706,18,9ZM9.64286,3.85753C9.64286,3.85753,9.64286,10.9286,9.64286,10.9286C9.64286,10.9286,8.35714,10.9286,8.35714,10.9286C8.35714,10.9286,8.35714,3.85753,8.35714,3.85753C8.35714,3.85753,9.64286,3.85753,9.64286,3.85753ZM8.22122,12.8571C8.22122,12.8571,9.76408,12.8571,9.76408,12.8571C9.76408,12.8571,9.76408,14.4,9.76408,14.4C9.76408,14.4,8.22122,14.4,8.22122,14.4C8.22122,14.4,8.22122,12.8571,8.22122,12.8571Z" fill="#1D62DB" fill-opacity="1"/></g></svg>