<svg xmlns="http://www.w3.org/2000/svg" xmlns:xlink="http://www.w3.org/1999/xlink" fill="none" version="1.1" width="32" height="32" viewBox="0 0 32 32"><g><g style="mix-blend-mode:passthrough"><path d="M32,16Q32,16.3928,31.9807,16.7851Q31.9615,17.1774,31.923,17.5683Q31.8845,17.9592,31.8268,18.3477Q31.7692,18.7362,31.6926,19.1214Q31.6159,19.5067,31.5205,19.8877Q31.4251,20.2687,31.311,20.6446Q31.197,21.0204,31.0647,21.3902Q30.9324,21.7601,30.7821,22.1229Q30.6318,22.4858,30.4638,22.8409Q30.2959,23.1959,30.1107,23.5423Q29.9256,23.8887,29.7237,24.2256Q29.5217,24.5625,29.3035,24.8891Q29.0853,25.2157,28.8513,25.5312Q28.6173,25.8467,28.3682,26.1503Q28.119,26.4539,27.8552,26.7449Q27.5914,27.036,27.3137,27.3137Q27.036,27.5914,26.7449,27.8552Q26.4539,28.119,26.1503,28.3682Q25.8467,28.6173,25.5312,28.8513Q25.2157,29.0853,24.8891,29.3035Q24.5625,29.5217,24.2256,29.7237Q23.8887,29.9256,23.5423,30.1107Q23.1959,30.2959,22.8409,30.4638Q22.4858,30.6318,22.1229,30.7821Q21.7601,30.9324,21.3902,31.0647Q21.0204,31.197,20.6446,31.311Q20.2687,31.4251,19.8877,31.5205Q19.5067,31.6159,19.1214,31.6926Q18.7362,31.7692,18.3477,31.8268Q17.9592,31.8845,17.5683,31.923Q17.1774,31.9615,16.7851,31.9807Q16.3928,32,16,32Q15.6072,32,15.2149,31.9807Q14.8226,31.9615,14.4317,31.923Q14.0408,31.8845,13.6523,31.8268Q13.2638,31.7692,12.8786,31.6926Q12.4933,31.6159,12.1123,31.5205Q11.7313,31.4251,11.3554,31.311Q10.9796,31.197,10.6098,31.0647Q10.2399,30.9324,9.87706,30.7821Q9.51418,30.6318,9.15912,30.4638Q8.80405,30.2959,8.45765,30.1107Q8.11125,29.9256,7.77436,29.7237Q7.43746,29.5217,7.11088,29.3035Q6.78429,29.0853,6.46881,28.8513Q6.15333,28.6173,5.84971,28.3682Q5.54609,28.119,5.25506,27.8552Q4.96403,27.5914,4.68629,27.3137Q4.40856,27.036,4.14478,26.7449Q3.88101,26.4539,3.63183,26.1503Q3.38266,25.8467,3.14868,25.5312Q2.9147,25.2157,2.69649,24.8891Q2.47827,24.5625,2.27634,24.2256Q2.07441,23.8887,1.88926,23.5423Q1.70411,23.1959,1.53617,22.8409Q1.36824,22.4858,1.21793,22.1229Q1.06762,21.7601,0.935295,21.3902Q0.802972,21.0204,0.688955,20.6446Q0.574937,20.2687,0.4795,19.8877Q0.384063,19.5067,0.307435,19.1214Q0.230808,18.7362,0.173176,18.3477Q0.115543,17.9592,0.0770444,17.5683Q0.0385454,17.1774,0.0192727,16.7851Q0,16.3928,0,16Q0,15.6072,0.0192727,15.2149Q0.0385454,14.8226,0.0770444,14.4317Q0.115543,14.0408,0.173176,13.6523Q0.230808,13.2638,0.307435,12.8786Q0.384063,12.4933,0.4795,12.1123Q0.574937,11.7313,0.688955,11.3554Q0.802972,10.9796,0.935295,10.6098Q1.06762,10.2399,1.21793,9.87706Q1.36824,9.51418,1.53617,9.15912Q1.70411,8.80405,1.88926,8.45765Q2.07441,8.11125,2.27634,7.77436Q2.47827,7.43746,2.69649,7.11088Q2.9147,6.78429,3.14868,6.46881Q3.38266,6.15333,3.63183,5.84971Q3.88101,5.54609,4.14478,5.25506Q4.40856,4.96403,4.68629,4.68629Q4.96403,4.40856,5.25506,4.14478Q5.54609,3.88101,5.84971,3.63183Q6.15333,3.38266,6.46881,3.14868Q6.78429,2.9147,7.11088,2.69649Q7.43746,2.47827,7.77436,2.27634Q8.11125,2.07441,8.45765,1.88926Q8.80405,1.70411,9.15912,1.53617Q9.51418,1.36824,9.87706,1.21793Q10.2399,1.06762,10.6098,0.935295Q10.9796,0.802972,11.3554,0.688955Q11.7313,0.574937,12.1123,0.4795Q12.4933,0.384063,12.8786,0.307435Q13.2638,0.230808,13.6523,0.173176Q14.0408,0.115543,14.4317,0.0770444Q14.8226,0.0385454,15.2149,0.0192727Q15.6072,0,16,0Q16.3928,0,16.7851,0.0192727Q17.1774,0.0385454,17.5683,0.0770444Q17.9592,0.115543,18.3477,0.173176Q18.7362,0.230808,19.1214,0.307435Q19.5067,0.384063,19.8877,0.4795Q20.2687,0.574937,20.6446,0.688955Q21.0204,0.802972,21.3902,0.935295Q21.7601,1.06762,22.1229,1.21793Q22.4858,1.36824,22.8409,1.53617Q23.1959,1.70411,23.5423,1.88926Q23.8887,2.07441,24.2256,2.27634Q24.5625,2.47827,24.8891,2.69649Q25.2157,2.9147,25.5312,3.14868Q25.8467,3.38266,26.1503,3.63183Q26.4539,3.88101,26.7449,4.14478Q27.036,4.40856,27.3137,4.68629Q27.5914,4.96403,27.8552,5.25506Q28.119,5.54609,28.3682,5.84971Q28.6173,6.15333,28.8513,6.46881Q29.0853,6.78429,29.3035,7.11088Q29.5217,7.43746,29.7237,7.77436Q29.9256,8.11125,30.1107,8.45765Q30.2959,8.80405,30.4638,9.15912Q30.6318,9.51418,30.7821,9.87706Q30.9324,10.2399,31.0647,10.6098Q31.197,10.9796,31.311,11.3554Q31.4251,11.7313,31.5205,12.1123Q31.6159,12.4933,31.6926,12.8786Q31.7692,13.2638,31.8268,13.6523Q31.8845,14.0408,31.923,14.4317Q31.9615,14.8226,31.9807,15.2149Q32,15.6072,32,16Z" fill="#EEEEEE" fill-opacity="1"/></g><g style="mix-blend-mode:passthrough"><g><path d="M18.608800000000002,14.55016303125C18.4785,14.41999703125,18.3398,14.30266003125,18.1967,14.19386103125L18.1965,14.19409803125C18.049300000000002,14.05252613125,17.84941,13.96533203125,17.629060000000003,13.96533203125C17.1768,13.96533203125,16.81019,14.33196203125,16.81019,14.78421203125C16.81019,14.98432203125,16.882080000000002,15.16762203125,17.00133,15.30986203125C17.00133,15.30988203125,17.001379999999997,15.30992203125,17.00142,15.30994203125C17.058709999999998,15.37827203125,17.12686,15.43718203125,17.20338,15.48381203125C17.28059,15.54748203125,17.35638,15.61019203125,17.42725,15.68106203125L17.49476,15.74859203125C18.343400000000003,16.59623203125,18.0901,18.05663203125,17.241390000000003,18.90535203125L13.619869999999999,22.52585203125C12.77121,23.37350203125,11.39148,23.37350203125,10.54277,22.52585203125L10.474730000000001,22.45776203125C9.626,21.60908203125,9.626,20.22831203125,10.474730000000001,19.38168203125L12.07468,17.78224203125C12.279969999999999,17.61930203125,12.41175,17.36781203125,12.41175,17.08539203125C12.41175,16.59418203125,12.01356,16.19599203125,11.52235,16.19599203125C11.33699,16.19599203125,11.16494,16.25274203125,11.02246,16.34974203125C11.02201,16.34879203125,11.02153,16.347892031249998,11.02106,16.34692203125L11.004010000000001,16.36287203125C10.94103,16.40815203125,10.88408,16.46126203125,10.834900000000001,16.52111203125L9.1722,18.07698203125C7.609266,19.64102203125,7.609266,22.19903203125,9.1722,23.760892031250002L9.23971,23.82838203125C10.80265,25.39023203125,13.3595,25.39023203125,14.92244,23.82838203125L18.5429,20.20680203125C20.1037,18.64392203125,20.236,16.17848203125,18.6752,14.61659803125L18.608800000000002,14.55016303125Z" fill="#0256FF" fill-opacity="1"/></g><g><path d="M23.827953240203858,9.23973L23.76045324020386,9.17222C22.197513240203858,7.609259,19.640653240203857,7.609259,18.07772324020386,9.17222L14.457283240203857,12.79378C12.894343240203858,14.35675,12.808271240203858,16.61375,14.371213240203858,18.1777L14.437643240203858,18.2431C14.508613240203857,18.3141,14.582293240203857,18.381,14.657493240203857,18.4452C14.711933240203857,18.506,14.775883240203857,18.558,14.846973240203857,18.5992C14.847513240203858,18.599600000000002,14.848073240203858,18.600099999999998,14.848613240203857,18.6005L14.848853240203857,18.6003C14.962153240203858,18.665399999999998,15.093443240203857,18.7029,15.233543240203858,18.7029C15.660493240203857,18.7029,16.006593240203856,18.3568,16.006593240203856,17.929859999999998C16.006593240203856,17.809359999999998,15.978993240203858,17.6953,15.929793240203857,17.593609999999998C15.827593240203857,17.36413,15.636283240203857,17.22444,15.503963240203857,17.09209L15.437513240203858,17.026719999999997C14.588843240203857,16.17804,14.911113240203857,14.94505,15.759783240203857,14.09637L19.38235324020386,10.47585C20.22892324020386,9.62713,21.609133240203857,9.62713,22.457843240203857,10.47585L22.525393240203858,10.54228C23.374053240203857,11.391020000000001,23.374053240203857,12.77233,22.525393240203858,13.61998L20.93067324020386,15.2158C20.71372324020386,15.37654,20.57304324020386,15.63437,20.57304324020386,15.925080000000001C20.57304324020386,16.412309999999998,20.96801324020386,16.80731,21.45525324020386,16.80731C21.624833240203856,16.80731,21.78317324020386,16.75936,21.917633240203855,16.67643C21.918643240203856,16.67816,21.91959324020386,16.67975,21.920603240203857,16.6815L21.94533324020386,16.65867C22.02153324020386,16.60765,22.089213240203858,16.54502,22.14611324020386,16.47341L23.826753240203857,14.92256C25.390853240203857,13.35962,25.390853240203857,10.802669999999999,23.827953240203858,9.23973Z" fill="#0256FF" fill-opacity="1"/></g></g></g></svg>