<svg xmlns="http://www.w3.org/2000/svg" xmlns:xlink="http://www.w3.org/1999/xlink" fill="none" version="1.1" width="64" height="64" viewBox="0 0 64 64"><g style="mix-blend-mode:passthrough"><g style="mix-blend-mode:passthrough"><path d="M32,4C26.4621,4,21.0486,5.64217,16.444000000000003,8.71885C11.83947,11.79553,8.25064,16.1685,6.13139,21.2849C4.0121319,26.4012,3.457639,32.031099999999995,4.538025,37.4625C5.61841,42.894,8.28515,47.8831,12.20102,51.799C16.1169,55.7149,21.106,58.3816,26.5375,59.462C31.969,60.5424,37.5988,59.9879,42.7151,57.8686C47.8315,55.7494,52.2045,52.1605,55.2812,47.556C58.3578,42.9514,60,37.5379,60,32C60,24.5739,57.05,17.451999999999998,51.799,12.20101C46.548,6.94999,39.4261,4,32,4ZM32,56C27.2533,56,22.6131,54.5924,18.6663,51.9553C14.7195,49.3181,11.64341,45.5698,9.8269,41.1844C8.0104,36.799,7.53512,31.9734,8.46117,27.3178C9.38721,22.6623,11.67299,18.3859,15.0294,15.0294C18.3859,11.672979999999999,22.6623,9.3872,27.3178,8.46115C31.9734,7.5351099999999995,36.799,8.010390000000001,41.1844,9.826889999999999C45.5698,11.64339,49.3181,14.7195,51.9553,18.6663C54.5924,22.6131,56,27.2532,56,32C56,38.3652,53.4714,44.4697,48.9706,48.9706C44.4697,53.4714,38.3652,56,32,56ZM28,42.828L18,32.826L20.826,30L28,37.172L43.17,22L46,24.83L28,42.828Z" fill-rule="evenodd" fill="#2BA471" fill-opacity="1"/></g></g></svg>